<svg xmlns="http://www.w3.org/2000/svg" width="24" height="24" viewBox="0 0 24 24" fill="none" stroke="currentColor" stroke-width="1.5" stroke-linecap="round" stroke-linejoin="round">
  <!-- 插件示例图标：拼图块（线性风格，与内置图标一致） -->
  <path d="M10 3h4a1 1 0 0 1 1 1v2.5a1.5 1.5 0 1 0 3 0V4a1 1 0 0 1 1-1h0a2 2 0 0 1 2 2v4a1 1 0 0 1-1 1h-1.5a1.5 1.5 0 0 0 0 3H20a1 1 0 0 1 1 1v4a2 2 0 0 1-2 2h-4a1 1 0 0 1-1-1v-1.5a1.5 1.5 0 0 0-3 0V20a1 1 0 0 1-1 1H6a2 2 0 0 1-2-2v-4a1 1 0 0 1 1-1h1.5a1.5 1.5 0 0 0 0-3H5a1 1 0 0 1-1-1V6a2 2 0 0 1 2-2h4z"/>
</svg>
